<mxfile host="app.diagrams.net" modified="2022-11-03T01:46:10.182Z" agent="5.0 (Windows NT 10.0; Win64; x64) AppleWebKit/537.36 (KHTML, like Gecko) Chrome/106.0.0.0 Safari/537.36" etag="ypUBlaCO9MIoNNZ6OSNT" version="20.5.1" type="github">
  <diagram name="Page-1" id="42789a77-a242-8287-6e28-9cd8cfd52e62">
    <mxGraphModel dx="1017" dy="784" grid="1" gridSize="10" guides="1" tooltips="1" connect="0" arrows="0" fold="1" page="1" pageScale="1" pageWidth="1100" pageHeight="850" background="none" math="0" shadow="0">
      <root>
        <mxCell id="0" />
        <mxCell id="1" parent="0" />
        <mxCell id="lddYlFQK37-lrur-JPGs-1" value="redis缓存" style="whiteSpace=wrap;html=1;aspect=fixed;" vertex="1" parent="1">
          <mxGeometry x="290" y="560" width="80" height="80" as="geometry" />
        </mxCell>
        <mxCell id="lddYlFQK37-lrur-JPGs-2" value="postgres" style="whiteSpace=wrap;html=1;aspect=fixed;" vertex="1" parent="1">
          <mxGeometry x="600" y="560" width="80" height="80" as="geometry" />
        </mxCell>
        <mxCell id="lddYlFQK37-lrur-JPGs-3" value="redis-mq&lt;br&gt;消息队列" style="whiteSpace=wrap;html=1;aspect=fixed;" vertex="1" parent="1">
          <mxGeometry x="450" y="100" width="80" height="80" as="geometry" />
        </mxCell>
        <mxCell id="lddYlFQK37-lrur-JPGs-4" value="CacheHandlerServer" style="whiteSpace=wrap;html=1;aspect=fixed;" vertex="1" parent="1">
          <mxGeometry x="430" y="320" width="120" height="120" as="geometry" />
        </mxCell>
        <mxCell id="lddYlFQK37-lrur-JPGs-6" value="" style="endArrow=classic;html=1;rounded=0;exitX=0.5;exitY=0;exitDx=0;exitDy=0;exitPerimeter=0;" edge="1" parent="1" source="lddYlFQK37-lrur-JPGs-4" target="lddYlFQK37-lrur-JPGs-3">
          <mxGeometry width="50" height="50" relative="1" as="geometry">
            <mxPoint x="490" y="300" as="sourcePoint" />
            <mxPoint x="540" y="250" as="targetPoint" />
          </mxGeometry>
        </mxCell>
        <mxCell id="lddYlFQK37-lrur-JPGs-7" value="监听事件消息" style="text;html=1;strokeColor=none;fillColor=none;align=center;verticalAlign=middle;whiteSpace=wrap;rounded=0;" vertex="1" parent="1">
          <mxGeometry x="490" y="230" width="140" height="40" as="geometry" />
        </mxCell>
        <mxCell id="lddYlFQK37-lrur-JPGs-8" value="" style="endArrow=classic;html=1;rounded=0;" edge="1" parent="1" target="lddYlFQK37-lrur-JPGs-2">
          <mxGeometry width="50" height="50" relative="1" as="geometry">
            <mxPoint x="500" y="440" as="sourcePoint" />
            <mxPoint x="550" y="390" as="targetPoint" />
          </mxGeometry>
        </mxCell>
        <mxCell id="lddYlFQK37-lrur-JPGs-9" value="根据消息事件类型查询数据" style="text;html=1;strokeColor=none;fillColor=none;align=center;verticalAlign=middle;whiteSpace=wrap;rounded=0;" vertex="1" parent="1">
          <mxGeometry x="560" y="470" width="160" height="40" as="geometry" />
        </mxCell>
        <mxCell id="lddYlFQK37-lrur-JPGs-10" value="" style="endArrow=classic;html=1;rounded=0;" edge="1" parent="1" target="lddYlFQK37-lrur-JPGs-1">
          <mxGeometry width="50" height="50" relative="1" as="geometry">
            <mxPoint x="480" y="440" as="sourcePoint" />
            <mxPoint x="530" y="390" as="targetPoint" />
          </mxGeometry>
        </mxCell>
        <mxCell id="lddYlFQK37-lrur-JPGs-11" value="将查询的数据写入redis缓存中心" style="text;html=1;strokeColor=none;fillColor=none;align=center;verticalAlign=middle;whiteSpace=wrap;rounded=0;" vertex="1" parent="1">
          <mxGeometry x="310" y="480" width="110" height="30" as="geometry" />
        </mxCell>
        <mxCell id="lddYlFQK37-lrur-JPGs-12" value="Text" style="text;html=1;strokeColor=none;fillColor=none;align=center;verticalAlign=middle;whiteSpace=wrap;rounded=0;" vertex="1" parent="1">
          <mxGeometry x="490" y="340" width="60" height="30" as="geometry" />
        </mxCell>
        <mxCell id="lddYlFQK37-lrur-JPGs-13" value="&lt;b&gt;&lt;font style=&quot;font-size: 18px;&quot;&gt;CacheHandlerServer结构图&lt;/font&gt;&lt;/b&gt;" style="text;html=1;strokeColor=none;fillColor=none;align=center;verticalAlign=middle;whiteSpace=wrap;rounded=0;" vertex="1" parent="1">
          <mxGeometry x="360" y="40" width="270" height="50" as="geometry" />
        </mxCell>
      </root>
    </mxGraphModel>
  </diagram>
</mxfile>
